<svg width="18" height="18" viewBox="0 0 18 18" fill="none" xmlns="http://www.w3.org/2000/svg">
<path d="M17.1562 8.15625C17.6238 8.15625 18 8.53242 18 9C18 9.46758 17.6238 9.84375 17.1562 9.84375H9.84375V17.1562C9.84375 17.6238 9.46758 18 9 18C8.53242 18 8.15625 17.6238 8.15625 17.1562V9.84375H0.84375C0.376172 9.84375 0 9.46758 0 9C0 8.53242 0.376172 8.15625 0.84375 8.15625H8.15625V0.84375C8.15625 0.376172 8.53242 0 9 0C9.46758 0 9.84375 0.376172 9.84375 0.84375V8.15625H17.1562Z" fill="#535A60"/>
</svg>



