<svg width="18" height="18" viewBox="0 0 18 18" fill="none" xmlns="http://www.w3.org/2000/svg">
<path d="M12.9362 7.31179C12.9362 5.82009 12.3437 4.38949 11.2889 3.3347C10.2341 2.27991 8.80348 1.68734 7.31179 1.68734C5.82009 1.68734 4.38949 2.27991 3.3347 3.3347C2.27991 4.38949 1.68734 5.82009 1.68734 7.31179C1.68734 8.80348 2.27991 10.2341 3.3347 11.2889C4.38949 12.3437 5.82009 12.9362 7.31179 12.9362C8.80348 12.9362 10.2341 12.3437 11.2889 11.2889C12.3437 10.2341 12.9362 8.80348 12.9362 7.31179ZM11.85 13.0452C10.6056 14.033 9.02724 14.6236 7.31179 14.6236C3.27273 14.6236 0 11.3508 0 7.31179C0 3.27273 3.27273 0 7.31179 0C11.3508 0 14.6236 3.27273 14.6236 7.31179C14.6236 9.02724 14.033 10.6056 13.0452 11.85L17.7522 16.557C18.0826 16.8874 18.0826 17.4217 17.7522 17.7487C17.4217 18.0756 16.8874 18.0791 16.5605 17.7487L11.85 13.0452Z" fill="#535A60"/>
</svg>



